<?xml version="1.0" encoding="UTF-8" standalone="no"?>
<!-- Created with Inkscape (http://www.inkscape.org/) -->

<svg
   xmlns:dc="http://purl.org/dc/elements/1.1/"
   xmlns:cc="http://creativecommons.org/ns#"
   xmlns:rdf="http://www.w3.org/1999/02/22-rdf-syntax-ns#"
   xmlns:svg="http://www.w3.org/2000/svg"
   xmlns="http://www.w3.org/2000/svg"
   xmlns:sodipodi="http://sodipodi.sourceforge.net/DTD/sodipodi-0.dtd"
   xmlns:inkscape="http://www.inkscape.org/namespaces/inkscape"
   width="55mm"
   height="20mm"
   viewBox="0 0 55 20"
   version="1.1"
   id="svg8"
   inkscape:version="0.92.4 (5da689c313, 2019-01-14)"
   sodipodi:docname="anaylstaLogo.svg">
  <defs
     id="defs2" />
  <sodipodi:namedview
     id="base"
     pagecolor="#ffffff"
     bordercolor="#666666"
     borderopacity="1.0"
     inkscape:pageopacity="0.0"
     inkscape:pageshadow="2"
     inkscape:zoom="2.8"
     inkscape:cx="79.670226"
     inkscape:cy="104.8589"
     inkscape:document-units="mm"
     inkscape:current-layer="layer1"
     showgrid="false"
     inkscape:window-width="1920"
     inkscape:window-height="1017"
     inkscape:window-x="-8"
     inkscape:window-y="-8"
     inkscape:window-maximized="1" />
  <metadata
     id="metadata5">
    <rdf:RDF>
      <cc:Work
         rdf:about="">
        <dc:format>image/svg+xml</dc:format>
        <dc:type
           rdf:resource="http://purl.org/dc/dcmitype/StillImage" />
        <dc:title></dc:title>
      </cc:Work>
    </rdf:RDF>
  </metadata>
  <g
     inkscape:label="Layer 1"
     inkscape:groupmode="layer"
     id="layer1"
     transform="translate(0,-277)">
    <path
       style="fill:#ff0000;stroke-width:0.00674689"
       d="m 35.108978,287.97357 c 0.13543,-0.0281 0.27014,-0.094 0.36486,-0.17834 0.0455,-0.0405 0.13159,-0.14563 0.16399,-0.20025 0.15287,-0.2578 0.14171,-0.58451 -0.0287,-0.84065 -0.067,-0.10068 -0.18747,-0.20552 -0.30235,-0.26313 -0.18173,-0.0911 -0.40656,-0.10654 -0.60189,-0.0412 -0.24554,0.0821 -0.44431,0.293 -0.51107,0.54232 -0.0968,0.36165 0.0712,0.73933 0.40499,0.91047 0.0827,0.0424 0.17008,0.0677 0.28966,0.084 0.0376,0.005 0.17089,-0.003 0.22055,-0.0132 z"
       id="path13110-29-3"
       inkscape:connector-curvature="0" />
    <path
       inkscape:connector-curvature="0"
       style="font-style:normal;font-variant:normal;font-weight:bold;font-stretch:normal;font-size:14.15005779px;line-height:1.25;font-family:Calibri;-inkscape-font-specification:'Calibri, Bold';font-variant-ligatures:normal;font-variant-caps:normal;font-variant-numeric:normal;font-feature-settings:normal;text-align:start;letter-spacing:0px;word-spacing:0px;writing-mode:lr-tb;text-anchor:start;fill:#000000;fill-opacity:1;stroke:none;stroke-width:0.08001616"
       d="m 32.310038,295.42904 c -0.31233,0.39259 -1.80883,0.53007 -1.74112,-0.24505 0,-2.94685 0,-5.89372 0,-8.84057 0.2925,-0.41389 1.75917,-0.55165 1.74112,0.19602 0,2.9632 0,5.9264 0,8.8896 z"
       id="path13051-3-46-9" />
    <path
       inkscape:connector-curvature="0"
       style="font-style:normal;font-variant:normal;font-weight:bold;font-stretch:normal;font-size:14.15005779px;line-height:1.25;font-family:Calibri;-inkscape-font-specification:'Calibri, Bold';font-variant-ligatures:normal;font-variant-caps:normal;font-variant-numeric:normal;font-feature-settings:normal;text-align:start;letter-spacing:0px;word-spacing:0px;writing-mode:lr-tb;text-anchor:start;fill:#000000;fill-opacity:1;stroke:none;stroke-width:0.08001616"
       d="m 35.792268,295.42904 c -0.31231,0.39259 -1.80882,0.53007 -1.74111,-0.24505 0,-1.96805 0,-3.93611 0,-5.90415 0.30293,-0.40127 1.74999,-0.54439 1.74111,0.19602 0,1.98439 0,3.96878 0,5.95318 z"
       id="path13049-6-7-0" />
    <path
       inkscape:connector-curvature="0"
       style="font-style:normal;font-variant:normal;font-weight:bold;font-stretch:normal;font-size:14.15005779px;line-height:1.25;font-family:Calibri;-inkscape-font-specification:'Calibri, Bold';font-variant-ligatures:normal;font-variant-caps:normal;font-variant-numeric:normal;font-feature-settings:normal;text-align:start;letter-spacing:0px;word-spacing:0px;writing-mode:lr-tb;text-anchor:start;fill:#000000;fill-opacity:1;stroke:none;stroke-width:0.08001616"
       d="m 41.872388,293.68791 c 0.0648,1.0614 -0.84341,1.92734 -1.8534,2.05722 -0.90111,0.15792 -1.91203,0.0942 -2.69286,-0.41973 -0.38834,-0.55279 -0.16403,-1.85277 0.66328,-1.0502 0.67759,0.40698 2.32583,0.53077 2.15739,-0.64083 -0.50411,-0.75991 -1.60004,-0.6926 -2.25584,-1.2834 -1.10662,-0.79733 -0.83092,-2.7313 0.44089,-3.20834 0.9515,-0.3974 2.12078,-0.3782 3.02234,0.13721 0.3781,0.45359 0.2195,1.77161 -0.55964,1.0502 -0.62559,-0.33993 -2.1099,-0.43169 -1.92249,0.62528 0.52065,0.75496 1.62198,0.68811 2.29386,1.27129 0.46007,0.33372 0.72483,0.89496 0.70647,1.4613 z"
       id="path13045-8-2-6" />
    <path
       inkscape:connector-curvature="0"
       style="font-style:normal;font-variant:normal;font-weight:bold;font-stretch:normal;font-size:14.15005779px;line-height:1.25;font-family:Calibri;-inkscape-font-specification:'Calibri, Bold';font-variant-ligatures:normal;font-variant-caps:normal;font-variant-numeric:normal;font-feature-settings:normal;text-align:start;letter-spacing:0px;word-spacing:0px;writing-mode:lr-tb;text-anchor:start;fill:#000000;fill-opacity:1;stroke:none;stroke-width:0.08001616"
       d="m 46.653548,294.82102 c 0.17657,1.08501 -1.20671,1.0481 -1.93415,0.92983 -0.91358,-0.10205 -1.427,-1.02662 -1.40948,-1.87898 -0.0163,-1.14353 -0.003,-2.28756 -0.007,-3.43129 -0.32793,-0.0594 -0.84851,0.17438 -0.96987,-0.25521 -0.19453,-0.59897 0.002,-1.35592 0.72757,-1.15426 0.41874,0.10927 0.18061,-0.43834 0.2423,-0.68611 0.0237,-0.3745 -0.15601,-0.99682 0.44219,-0.95829 0.56402,-0.0907 1.4981,-0.0744 1.29201,0.71052 0,0.31129 0,0.62259 0,0.93388 0.48451,0.0216 0.98158,-0.0441 1.45786,0.0345 0.3116,0.46307 0.28108,1.58239 -0.50261,1.37493 -0.31841,0 -0.63681,0 -0.95525,0 0.0214,1.11183 -0.0459,2.22938 0.0397,3.33715 0.14322,1.31942 1.81349,-0.31861 1.57703,1.04329 z"
       id="path13043-7-1-4" />
    <path
       id="text8330-78-5-2-8"
       style="font-style:normal;font-variant:normal;font-weight:bold;font-stretch:normal;font-size:14.15005779px;line-height:1.25;font-family:Calibri;-inkscape-font-specification:'Calibri, Bold';font-variant-ligatures:normal;font-variant-caps:normal;font-variant-numeric:normal;font-feature-settings:normal;text-align:start;letter-spacing:0px;word-spacing:0px;writing-mode:lr-tb;text-anchor:start;fill:#000000;fill-opacity:1;stroke:none;stroke-width:0.08001616"
       d="m 51.331088,292.81045 c -0.73129,0.0294 -1.68366,-0.15415 -2.14186,0.55273 -0.51615,1.08185 1.09189,1.65292 1.74727,0.87909 0.44857,-0.21226 0.41589,-0.65142 0.39459,-1.06772 0,-0.12138 0,-0.24275 0,-0.3641 z m 1.70657,2.63931 c -0.22613,0.3886 -1.59427,0.48043 -1.43712,-0.24503 0.0598,-0.59996 -0.63619,0.52609 -0.9932,0.44355 -1.10226,0.42452 -2.72709,0.11137 -3.10741,-1.15285 -0.3138,-0.94155 0.0962,-2.11406 1.08701,-2.44284 0.86833,-0.35646 1.82177,-0.33571 2.74415,-0.33381 0.034,-0.57573 -0.012,-1.38986 -0.73238,-1.48807 -0.90036,-0.19552 -1.74326,0.25393 -2.54259,0.58296 -0.83629,-0.61122 0.0377,-1.76218 0.92583,-1.75579 1.11801,-0.27232 2.4633,-0.3448 3.42007,0.39468 0.85466,0.80745 0.58965,2.06835 0.63564,3.12586 0,0.95711 0,1.91423 0,2.87134 z"
       inkscape:connector-curvature="0" />
    <path
       style="fill:#ff0000;stroke-width:0.00722857"
       d="m 52.786698,291.25358 c 0.0269,0.0592 0.0199,0.13138 -0.0203,0.20891 -0.0103,0.0207 -0.0629,0.10454 -0.1163,0.18713 -0.12165,0.18815 -0.17185,0.27571 -0.23844,0.41612 -0.13766,0.29007 -0.2639,0.71463 -0.41944,1.41068 -0.13678,0.6121 -0.2122,0.86599 -0.34123,1.1486 -0.12904,0.28264 -0.29183,0.51632 -0.5076,0.72867 -0.32297,0.31789 -0.63432,0.50338 -1.03418,0.61575 -0.16354,0.046 -0.40434,0.0784 -0.58824,0.0792 -0.1055,5.3e-4 -0.31686,-0.02 -0.42532,-0.0411 -0.42596,-0.0829 -0.80784,-0.28218 -1.129,-0.5892 -0.094,-0.0898 -0.26792,-0.30548 -0.33583,-0.41635 -0.1399,-0.22842 -0.22566,-0.44221 -0.28352,-0.70677 -0.0528,-0.24146 -0.0642,-0.45914 -0.0374,-0.7111 0.0645,-0.60422 0.34826,-1.1254 0.82022,-1.50622 0.36749,-0.29654 0.76406,-0.47262 1.23014,-0.54616 0.2465,-0.0389 0.49093,-0.0525 1.0133,-0.0563 0.52618,-0.004 0.71945,-0.011 1.00993,-0.0374 0.36302,-0.033 0.53634,-0.0733 0.90983,-0.21124 0.11657,-0.0431 0.22369,-0.0808 0.23801,-0.0838 0.0929,-0.0196 0.16146,-0.002 0.21447,0.0555 0.0171,0.0184 0.0354,0.0432 0.0408,0.055 z"
       id="path13125-8-7-3"
       inkscape:connector-curvature="0" />
    <path
       style="fill:#ffffff;stroke-width:0.00722857"
       d="m 50.065148,293.17147 c -0.11455,-0.094 -0.26009,-0.16206 -0.39413,-0.18431 -0.0644,-0.0107 -0.20996,-0.0118 -0.27731,-0.002 -0.31782,0.0459 -0.58275,0.27497 -0.68174,0.58938 -0.0389,0.12359 -0.0453,0.29458 -0.0161,0.42913 0.0462,0.21285 0.18463,0.4107 0.37047,0.52968 0.23359,0.14956 0.54319,0.17345 0.79602,0.0614 0.3667,-0.16253 0.56865,-0.55667 0.48686,-0.95015 -0.0203,-0.0975 -0.0579,-0.18739 -0.12479,-0.29804 -0.021,-0.0348 -0.11728,-0.14064 -0.15934,-0.17508 z"
       id="path13110-29-6-1"
       inkscape:connector-curvature="0" />
    <path
       style="font-style:normal;font-variant:normal;font-weight:bold;font-stretch:normal;font-size:473.13607788px;line-height:1.25;font-family:Calibri;-inkscape-font-specification:'Calibri, Bold';font-variant-ligatures:normal;font-variant-caps:normal;font-variant-numeric:normal;font-feature-settings:normal;text-align:start;letter-spacing:0px;word-spacing:0px;writing-mode:lr-tb;text-anchor:start;fill:#000000;fill-opacity:1;stroke:none;stroke-width:0.11559395"
       d="m 24.633888,277.84665 c -0.41713,0.10549 -1.04335,-0.26573 -1.27443,0.59804 -0.982234,5.22832 -1.955384,10.46286 -2.934134,15.69357 -0.2414,0.71295 -0.11114,1.68746 0.42325,1.47838 0.42114,-0.0878 1.02524,0.28779 1.30438,-0.46631 0.18309,-1.00751 0.3557,-2.0217 0.531931,-3.03359 l -0.0142,-0.004 0.541393,-3.33546 c 0.0843,-0.47116 0.16854,-0.94238 0.25281,-1.41358 0.36622,-2.02045 0.7191,-4.07536 1.09366,-6.07429 0.35363,1.97733 0.70727,3.95463 1.06088,5.93197 0.35544,1.93312 0.65479,3.74324 0.96228,5.56509 h -0.009 c 0.15311,0.86199 0.29325,1.73458 0.48129,2.56808 0.42318,0.45384 0.96829,0.20728 1.44193,0.25634 0.51434,0.20212 0.63348,-0.71425 0.40945,-1.39994 -0.73718,-3.93262 -1.47432,-7.86526 -2.21149,-11.79788 -0.26838,-1.37845 -0.50127,-2.78537 -0.7938,-4.14443 -0.31496,-0.62037 -0.8553,-0.3248 -1.26621,-0.42194 z"
       id="path8055-6-5-6-3-7-9-3-8-2"
       inkscape:connector-curvature="0"
       sodipodi:nodetypes="ccccccccccccccccccc" />
    <path
       style="font-style:normal;font-variant:normal;font-weight:bold;font-stretch:normal;font-size:473.13607788px;line-height:1.25;font-family:Calibri;-inkscape-font-specification:'Calibri, Bold';font-variant-ligatures:normal;font-variant-caps:normal;font-variant-numeric:normal;font-feature-settings:normal;text-align:start;letter-spacing:0px;word-spacing:0px;writing-mode:lr-tb;text-anchor:start;fill:#ff0000;fill-opacity:1;stroke:none;stroke-width:0.08474715"
       d="m 5.8424864,286.08765 c -0.4171297,0.0567 -1.0433494,-0.1428 -1.2744291,0.32145 -0.9822302,2.81025 -1.9553802,5.62381 -2.9341302,8.43531 -0.2414,0.38324 -0.11114,0.90702 0.42325,0.79463 0.42114,-0.0472 1.02524,0.1547 1.30438,-0.25063 0.18309,-0.54151 0.3557,-1.08667 0.53193,-1.63055 l -0.0142,-0.002 0.5413802,-1.7928 c 0.0843,-0.25328 0.16855,-0.50653 0.25282,-0.7598 0.3662197,-1.08602 0.7190894,-2.19052 1.0936491,-3.26494 0.35364,1.06281 0.7072697,2.12562 1.0608894,3.18845 0.35544,1.03903 0.6547897,2.01197 0.9622797,2.99124 h -0.009 c 0.1531097,0.46333 0.2932497,0.93237 0.4812897,1.38035 0.4231797,0.24395 0.9682894,0.11141 1.4419191,0.13777 0.5143497,0.10866 0.6335097,-0.3839 0.4094597,-0.75246 -0.7371694,-2.11379 -1.4743191,-4.22758 -2.2114788,-6.34141 -0.2683897,-0.74089 -0.5012597,-1.49713 -0.7938094,-2.22764 -0.3149597,-0.33343 -0.8552994,-0.17455 -1.2662094,-0.22679 z"
       id="path8055-6-5-6-4-5-9-11-6"
       inkscape:connector-curvature="0"
       sodipodi:nodetypes="ccccccccccccccccccc" />
    <path
       inkscape:connector-curvature="0"
       style="font-style:normal;font-variant:normal;font-weight:bold;font-stretch:normal;font-size:473.13607788px;line-height:1.25;font-family:Calibri;-inkscape-font-specification:'Calibri, Bold';font-variant-ligatures:normal;font-variant-caps:normal;font-variant-numeric:normal;font-feature-settings:normal;text-align:start;letter-spacing:0px;word-spacing:0px;writing-mode:lr-tb;text-anchor:start;fill:#000000;fill-opacity:1;stroke:none;stroke-width:0.07108857"
       d="m 12.049744,288.98041 c -0.34417,0.01 -0.69576,0.16341 -0.69402,0.43046 -0.007,1.9635 -0.001,3.92704 -0.003,5.8906 -0.0855,0.24845 0.23314,0.40015 0.57,0.37155 0.37866,-0.0121 0.89868,0.0761 1.15341,-0.16639 0.0251,-0.36158 0.004,-0.72573 0.0109,-1.08831 -0.0132,-1.31497 0.0383,-2.63114 -0.0589,-3.94498 0.13181,0.19594 0.25526,0.40841 0.3881,0.6165 v -2.08204 c -0.39914,-0.047 -0.81639,-0.009 -1.2206,-0.0227 -0.0478,-0.005 -0.0966,-0.006 -0.14573,-0.005 z"
       id="text7879-1-5-5-8-8-8-7-6-4-2-4-84-1-8" />
    <path
       inkscape:connector-curvature="0"
       style="font-style:normal;font-variant:normal;font-weight:bold;font-stretch:normal;font-size:473.13607788px;line-height:1.25;font-family:Calibri;-inkscape-font-specification:'Calibri, Bold';font-variant-ligatures:normal;font-variant-caps:normal;font-variant-numeric:normal;font-feature-settings:normal;text-align:start;letter-spacing:0px;word-spacing:0px;writing-mode:lr-tb;text-anchor:start;fill:#000000;fill-opacity:1;stroke:none;stroke-width:0.07108857"
       d="m 19.160494,295.17432 c 0.0316,0.30232 -0.3929,0.52499 -0.79845,0.48401 -0.48587,-0.0201 -1.01663,0.0666 -1.45406,-0.12198 -0.47701,-0.26858 -0.66337,-0.69884 -0.96607,-1.05945 -0.77571,-1.03554 -1.5759,-2.06218 -2.33423,-3.10403 -0.21401,-0.29087 -0.38686,-0.61332 -0.57945,-0.89962 0.0972,1.31384 0.0453,2.62992 0.0585,3.94488 -0.007,0.36258 0.0142,0.72672 -0.0109,1.08829 -0.25473,0.24251 -0.774341,0.15435 -1.153,0.16646 -0.33686,0.0286 -0.655791,-0.12308 -0.570321,-0.37153 0.002,-1.96356 -0.004,-3.92722 0.003,-5.89073 -0.002,-0.30521 0.457591,-0.46235 0.840061,-0.42544 0.5105,0.0171 1.04246,-0.0507 1.53145,0.0785 0.52224,0.19162 0.68247,0.61953 0.96858,0.9535 0.94392,1.25684 1.93353,2.50434 2.77444,3.79262 -0.0754,-1.33739 -0.0325,-2.67619 -0.0439,-4.01429 0.007,-0.2193 -0.0142,-0.44016 0.0111,-0.65845 0.24129,-0.23875 0.74648,-0.15275 1.11044,-0.16864 0.32495,-0.0278 0.70272,0.0962 0.61287,0.35637 0,1.94983 0,3.89968 0,5.8495 z"
       id="text7879-1-5-5-8-8-8-7-6-4-2-4-84-3" />
  </g>
</svg>
