<?xml version="1.0" encoding="UTF-8" standalone="no"?>
<!-- Created with Inkscape (http://www.inkscape.org/) -->

<svg
   xmlns:dc="http://purl.org/dc/elements/1.1/"
   xmlns:cc="http://creativecommons.org/ns#"
   xmlns:rdf="http://www.w3.org/1999/02/22-rdf-syntax-ns#"
   xmlns:svg="http://www.w3.org/2000/svg"
   xmlns="http://www.w3.org/2000/svg"
   xmlns:sodipodi="http://sodipodi.sourceforge.net/DTD/sodipodi-0.dtd"
   xmlns:inkscape="http://www.inkscape.org/namespaces/inkscape"
   width="165mm"
   height="60mm"
   viewBox="0 0 165 60"
   version="1.1"
   id="svg8"
   inkscape:version="0.92.4 (5da689c313, 2019-01-14)"
   sodipodi:docname="anaylstaLogo2.svg">
  <defs
     id="defs2" />
  <sodipodi:namedview
     id="base"
     pagecolor="#ffffff"
     bordercolor="#666666"
     borderopacity="1.0"
     inkscape:pageopacity="0.0"
     inkscape:pageshadow="2"
     inkscape:zoom="1.4"
     inkscape:cx="176.49563"
     inkscape:cy="3.3008758"
     inkscape:document-units="mm"
     inkscape:current-layer="layer1"
     showgrid="false"
     inkscape:window-width="1920"
     inkscape:window-height="1017"
     inkscape:window-x="-8"
     inkscape:window-y="-8"
     inkscape:window-maximized="1" />
  <metadata
     id="metadata5">
    <rdf:RDF>
      <cc:Work
         rdf:about="">
        <dc:format>image/svg+xml</dc:format>
        <dc:type
           rdf:resource="http://purl.org/dc/dcmitype/StillImage" />
        <dc:title></dc:title>
      </cc:Work>
    </rdf:RDF>
  </metadata>
  <g
     inkscape:label="Layer 1"
     inkscape:groupmode="layer"
     id="layer1"
     transform="translate(0,-237)">
    <path
       style="fill:#ff0000;stroke-width:0.02088509"
       d="m 105.09243,270.95363 c 0.41758,-0.0874 0.83294,-0.29213 1.12499,-0.55423 0.14029,-0.12587 0.40574,-0.45258 0.50564,-0.62233 0.47136,-0.80116 0.43695,-1.81648 -0.0885,-2.6125 -0.20659,-0.31288 -0.57804,-0.63869 -0.93226,-0.81773 -0.56034,-0.2831 -1.25357,-0.33109 -1.85584,-0.12803 -0.75709,0.25514 -1.36997,0.91055 -1.57582,1.68537 -0.29847,1.1239 0.21954,2.29762 1.24874,2.82948 0.25499,0.13177 0.52441,0.21039 0.89312,0.26105 0.11594,0.0156 0.52692,-0.009 0.68004,-0.041 z"
       id="path13110-29-3"
       inkscape:connector-curvature="0" />
    <path
       inkscape:connector-curvature="0"
       style="font-style:normal;font-variant:normal;font-weight:bold;font-stretch:normal;font-size:14.15005779px;line-height:1.25;font-family:Calibri;-inkscape-font-specification:'Calibri, Bold';font-variant-ligatures:normal;font-variant-caps:normal;font-variant-numeric:normal;font-feature-settings:normal;text-align:start;letter-spacing:0px;word-spacing:0px;writing-mode:lr-tb;text-anchor:start;fill:#000000;fill-opacity:1;stroke:none;stroke-width:0.24769118"
       d="m 96.462274,294.12308 c -0.963027,1.22006 -5.577282,1.64731 -5.368507,-0.76155 0,-9.15796 0,-18.31598 0,-27.47394 0.901884,-1.28626 5.424161,-1.71437 5.368507,0.60917 0,9.20877 0,18.41755 0,27.62632 z"
       id="path13051-3-46-9" />
    <path
       inkscape:connector-curvature="0"
       style="font-style:normal;font-variant:normal;font-weight:bold;font-stretch:normal;font-size:14.15005779px;line-height:1.25;font-family:Calibri;-inkscape-font-specification:'Calibri, Bold';font-variant-ligatures:normal;font-variant-caps:normal;font-variant-numeric:normal;font-feature-settings:normal;text-align:start;letter-spacing:0px;word-spacing:0px;writing-mode:lr-tb;text-anchor:start;fill:#000000;fill-opacity:1;stroke:none;stroke-width:0.24769118"
       d="m 107.19926,294.12308 c -0.96297,1.22006 -5.57725,1.64731 -5.36848,-0.76155 0,-6.11612 0,-12.23229 0,-18.34839 0.93404,-1.24704 5.39586,-1.69181 5.36848,0.60917 0,6.16692 0,12.33383 0,18.50077 z"
       id="path13049-6-7-0" />
    <path
       inkscape:connector-curvature="0"
       style="font-style:normal;font-variant:normal;font-weight:bold;font-stretch:normal;font-size:14.15005779px;line-height:1.25;font-family:Calibri;-inkscape-font-specification:'Calibri, Bold';font-variant-ligatures:normal;font-variant-caps:normal;font-variant-numeric:normal;font-feature-settings:normal;text-align:start;letter-spacing:0px;word-spacing:0px;writing-mode:lr-tb;text-anchor:start;fill:#000000;fill-opacity:1;stroke:none;stroke-width:0.24769118"
       d="m 125.94648,288.71215 c 0.1998,3.29853 -2.60054,5.98962 -5.71471,6.39325 -2.77845,0.49077 -5.89548,0.29274 -8.30306,-1.3044 -1.1974,-1.71792 -0.50577,-5.75788 2.04513,-3.26372 2.08926,1.26478 7.17138,1.64948 6.65202,-1.99152 -1.55436,-2.36158 -4.93351,-2.15239 -6.95558,-3.98844 -3.41211,-2.47786 -2.56203,-8.48809 1.35943,-9.9706 2.93382,-1.235 6.53913,-1.17533 9.31897,0.42642 1.16582,1.40963 0.6768,5.50565 -1.72557,3.26371 -1.92892,-1.0564 -6.50559,-1.34156 -5.92774,1.9432 1.60535,2.3462 5.00116,2.13844 7.07281,3.95081 1.41856,1.03709 2.23491,2.78127 2.1783,4.54129 z"
       id="path13045-8-2-6" />
    <path
       inkscape:connector-curvature="0"
       style="font-style:normal;font-variant:normal;font-weight:bold;font-stretch:normal;font-size:14.15005779px;line-height:1.25;font-family:Calibri;-inkscape-font-specification:'Calibri, Bold';font-variant-ligatures:normal;font-variant-caps:normal;font-variant-numeric:normal;font-feature-settings:normal;text-align:start;letter-spacing:0px;word-spacing:0px;writing-mode:lr-tb;text-anchor:start;fill:#000000;fill-opacity:1;stroke:none;stroke-width:0.24769118"
       d="m 140.68854,292.23353 c 0.54443,3.3719 -3.72073,3.25719 -5.96369,2.88964 -2.8169,-0.31714 -4.39996,-3.19043 -4.34594,-5.83932 -0.0503,-3.55376 -0.009,-7.10908 -0.0216,-10.66347 -1.01113,-0.1846 -2.61627,0.54192 -2.99047,-0.79312 -0.5998,-1.86142 0.006,-4.21381 2.24337,-3.5871 1.29113,0.33957 0.55688,-1.36224 0.7471,-2.13224 0.0731,-1.16384 -0.48104,-3.09783 1.36343,-2.97809 1.73908,-0.28187 4.61919,-0.23121 3.98374,2.2081 0,0.9674 0,1.93482 0,2.90223 1.49392,0.0671 3.02657,-0.13705 4.49511,0.10725 0.96078,1.43908 0.86667,4.91761 -1.54973,4.27289 -0.98177,0 -1.96352,0 -2.94538,0 0.066,3.45524 -0.14153,6.92826 0.12241,10.3709 0.4416,4.10038 5.59165,-0.99016 4.86255,3.24225 z"
       id="path13043-7-1-4" />
    <path
       id="text8330-78-5-2-8"
       style="font-style:normal;font-variant:normal;font-weight:bold;font-stretch:normal;font-size:14.15005779px;line-height:1.25;font-family:Calibri;-inkscape-font-specification:'Calibri, Bold';font-variant-ligatures:normal;font-variant-caps:normal;font-variant-numeric:normal;font-feature-settings:normal;text-align:start;letter-spacing:0px;word-spacing:0px;writing-mode:lr-tb;text-anchor:start;fill:#000000;fill-opacity:1;stroke:none;stroke-width:0.24769118"
       d="m 155.1111,285.98526 c -2.25484,0.0914 -5.19134,-0.47905 -6.60414,1.71772 -1.59147,3.36208 3.3667,5.13681 5.38747,2.73196 1.38311,-0.65964 1.28234,-2.02443 1.21667,-3.31817 0,-0.3772 0,-0.75439 0,-1.13151 z m 5.26198,8.20222 c -0.69725,1.20765 -4.91572,1.49303 -4.43117,-0.76149 0.18439,-1.8645 -1.9616,1.63494 -3.0624,1.37842 -3.39867,1.31929 -8.40861,0.34611 -9.58127,-3.58272 -0.96756,-2.92606 0.29662,-6.56989 3.35164,-7.59164 2.67738,-1.10778 5.61718,-1.0433 8.46122,-1.03739 0.10483,-1.78921 -0.037,-4.31929 -2.2582,-4.6245 -2.77613,-0.60761 -5.3751,0.78915 -7.83973,1.81168 -2.57858,-1.8995 0.11625,-5.47635 2.85467,-5.4565 3.44724,-0.84628 7.59526,-1.07154 10.54533,1.22656 2.63522,2.50932 1.8181,6.42784 1.95991,9.71428 0,2.97441 0,5.94887 0,8.9233 z"
       inkscape:connector-curvature="0" />
    <path
       style="fill:#ff0000;stroke-width:0.02237615"
       d="m 159.59927,281.14695 c 0.083,0.18398 0.0614,0.40829 -0.0626,0.64923 -0.0318,0.0643 -0.19394,0.32489 -0.35859,0.58155 -0.37509,0.58472 -0.52988,0.85683 -0.7352,1.29319 -0.42446,0.90145 -0.8137,2.22085 -1.29329,4.38398 -0.42174,1.90223 -0.65429,2.69124 -1.05213,3.56952 -0.39788,0.87836 -0.89982,1.60458 -1.56512,2.26449 -0.99583,0.98792 -1.95584,1.56437 -3.18875,1.91358 -0.50426,0.14296 -1.24673,0.24365 -1.81376,0.24613 -0.3253,10e-4 -0.977,-0.0621 -1.31142,-0.12772 -1.31339,-0.25764 -2.49086,-0.87694 -3.48112,-1.83107 -0.28983,-0.27907 -0.82609,-0.94934 -1.03548,-1.2939 -0.43136,-0.70986 -0.69579,-1.37426 -0.8742,-2.19643 -0.1628,-0.7504 -0.19795,-1.42688 -0.11532,-2.2099 0.19888,-1.87774 1.07382,-3.49742 2.52904,-4.6809 1.13311,-0.92155 2.35588,-1.46876 3.79297,-1.69731 0.76005,-0.12088 1.51372,-0.16315 3.12437,-0.17496 1.62241,-0.0125 2.21833,-0.0342 3.11399,-0.11623 1.11932,-0.10258 1.65373,-0.22779 2.80533,-0.65647 0.35943,-0.13395 0.68972,-0.25111 0.73388,-0.26042 0.28644,-0.0609 0.49784,-0.007 0.66128,0.17247 0.0527,0.0571 0.10916,0.13425 0.12581,0.17093 z"
       id="path13125-8-7-3"
       inkscape:connector-curvature="0" />
    <path
       style="fill:#ffffff;stroke-width:0.02237615"
       d="m 151.20774,287.1072 c -0.3532,-0.29213 -0.80195,-0.50364 -1.21524,-0.57278 -0.19857,-0.0332 -0.64739,-0.0367 -0.85505,-0.007 -0.97995,0.14264 -1.79683,0.85453 -2.10205,1.83163 -0.11995,0.38408 -0.13968,0.91547 -0.0496,1.33361 0.14245,0.66148 0.56928,1.27633 1.14229,1.6461 0.72024,0.46478 1.67485,0.53902 2.45442,0.1908 1.13067,-0.5051 1.75335,-1.72996 1.50117,-2.95279 -0.0626,-0.303 -0.17853,-0.58236 -0.38478,-0.92622 -0.0648,-0.10814 -0.36161,-0.43707 -0.4913,-0.5441 z"
       id="path13110-29-6-1"
       inkscape:connector-curvature="0" />
    <path
       style="font-style:normal;font-variant:normal;font-weight:bold;font-stretch:normal;font-size:473.13607788px;line-height:1.25;font-family:Calibri;-inkscape-font-specification:'Calibri, Bold';font-variant-ligatures:normal;font-variant-caps:normal;font-variant-numeric:normal;font-feature-settings:normal;text-align:start;letter-spacing:0px;word-spacing:0px;writing-mode:lr-tb;text-anchor:start;fill:#000000;fill-opacity:1;stroke:none;stroke-width:0.35782275"
       d="m 72.793908,239.48207 c -1.286164,0.32783 -3.217028,-0.82581 -3.929532,1.85854 -3.028585,16.24811 -6.029161,32.51556 -9.047004,48.77109 -0.744324,2.21566 -0.342685,5.24415 1.305034,4.59439 1.298528,-0.27286 3.161188,0.89437 4.021879,-1.44916 0.564533,-3.13104 1.096752,-6.28286 1.640137,-9.42753 l -0.04378,-0.0125 1.669312,-10.36565 c 0.259927,-1.46423 0.51967,-2.92865 0.779505,-4.393 1.12919,-6.27898 2.217247,-12.66504 3.372152,-18.87715 1.09037,6.14498 2.180771,12.28986 3.271079,18.43486 1.095951,6.00759 2.018957,11.63291 2.96706,17.2947 H 78.772 c 0.472094,2.67882 0.904196,5.39058 1.483992,7.98086 1.304818,1.4104 2.985591,0.64416 4.445996,0.79662 1.585897,0.62814 1.953249,-2.21967 1.262483,-4.35061 -2.272994,-12.22145 -4.545865,-24.44296 -6.818829,-36.66442 -0.827513,-4.28382 -1.545598,-8.65613 -2.447575,-12.87969 -0.971136,-1.92794 -2.637201,-1.00938 -3.904186,-1.31127 z"
       id="path8055-6-5-6-3-7-9-3-8-2"
       inkscape:connector-curvature="0"
       sodipodi:nodetypes="ccccccccccccccccccc" />
    <path
       style="font-style:normal;font-variant:normal;font-weight:bold;font-stretch:normal;font-size:473.13607788px;line-height:1.25;font-family:Calibri;-inkscape-font-specification:'Calibri, Bold';font-variant-ligatures:normal;font-variant-caps:normal;font-variant-numeric:normal;font-feature-settings:normal;text-align:start;letter-spacing:0px;word-spacing:0px;writing-mode:lr-tb;text-anchor:start;fill:#ff0000;fill-opacity:1;stroke:none;stroke-width:0.26233602"
       d="m 14.853173,265.09272 c -1.286163,0.17621 -3.217026,-0.44378 -3.929529,0.99898 -3.0285736,8.73345 -6.0291494,17.47719 -9.0469921,26.21452 -0.7443242,1.191 -0.3426851,2.81876 1.3050339,2.46948 1.298528,-0.14668 3.1611883,0.48076 4.0218785,-0.77888 0.5645332,-1.68287 1.0967527,-3.37706 1.640134,-5.06728 l -0.043784,-0.007 1.6692727,-5.57151 c 0.259927,-0.78713 0.519701,-1.57415 0.779536,-2.36124 1.129189,-3.37504 2.217214,-6.80751 3.372118,-10.1465 1.090401,3.30291 2.18077,6.60582 3.271109,9.90879 1.095951,3.22901 2.018955,6.25262 2.967059,9.29591 h -0.02775 c 0.472093,1.4399 0.904196,2.89754 1.483992,4.28973 1.304817,0.75813 2.985589,0.34623 4.445961,0.42815 1.585928,0.33769 1.953342,-1.19305 1.262514,-2.33843 -2.272962,-6.56905 -4.545863,-13.1381 -6.818795,-19.70728 -0.827543,-2.30246 -1.545566,-4.65264 -2.447603,-6.92287 -0.971136,-1.03619 -2.6372,-0.54245 -3.904185,-0.70479 z"
       id="path8055-6-5-6-4-5-9-11-6"
       inkscape:connector-curvature="0"
       sodipodi:nodetypes="ccccccccccccccccccc" />
    <path
       inkscape:connector-curvature="0"
       style="font-style:normal;font-variant:normal;font-weight:bold;font-stretch:normal;font-size:473.13607788px;line-height:1.25;font-family:Calibri;-inkscape-font-specification:'Calibri, Bold';font-variant-ligatures:normal;font-variant-caps:normal;font-variant-numeric:normal;font-feature-settings:normal;text-align:start;letter-spacing:0px;word-spacing:0px;writing-mode:lr-tb;text-anchor:start;fill:#000000;fill-opacity:1;stroke:none;stroke-width:0.22005568"
       d="m 33.992409,274.08259 c -1.061202,0.0311 -2.145282,0.50783 -2.139917,1.33774 -0.02158,6.10201 -0.0031,12.20412 -0.0093,18.3063 -0.263627,0.77212 0.718856,1.24356 1.757518,1.15467 1.167546,-0.0376 2.770958,0.2365 3.556383,-0.51709 0.07739,-1.12369 0.01233,-2.25536 0.03361,-3.38215 -0.0407,-4.08655 0.118092,-8.17683 -0.181611,-12.25987 0.406419,0.60893 0.78706,1.26922 1.196654,1.91591 v -6.47039 c -1.230694,-0.14605 -2.517228,-0.028 -3.763554,-0.0706 -0.147385,-0.0156 -0.297853,-0.0187 -0.449339,-0.0156 z"
       id="text7879-1-5-5-8-8-8-7-6-4-2-4-84-1-8" />
    <path
       inkscape:connector-curvature="0"
       style="font-style:normal;font-variant:normal;font-weight:bold;font-stretch:normal;font-size:473.13607788px;line-height:1.25;font-family:Calibri;-inkscape-font-specification:'Calibri, Bold';font-variant-ligatures:normal;font-variant-caps:normal;font-variant-numeric:normal;font-feature-settings:normal;text-align:start;letter-spacing:0px;word-spacing:0px;writing-mode:lr-tb;text-anchor:start;fill:#000000;fill-opacity:1;stroke:none;stroke-width:0.22005568"
       d="m 55.917441,293.33148 c 0.09743,0.93953 -1.211454,1.63153 -2.461912,1.50417 -1.498115,-0.0625 -3.134641,0.20698 -4.483397,-0.37908 -1.470796,-0.83467 -2.045411,-2.17179 -2.978746,-3.29246 -2.391796,-3.21817 -4.859073,-6.40867 -7.197281,-9.64644 -0.659871,-0.90393 -1.19283,-1.90602 -1.786655,-2.79576 0.299703,4.08304 0.139676,8.17304 0.180377,12.25956 -0.02158,1.12679 0.04378,2.25843 -0.03361,3.38209 -0.785425,0.75365 -2.387575,0.47967 -3.555119,0.51731 -1.038662,0.0889 -2.022043,-0.3825 -1.758507,-1.15461 0.0062,-6.10218 -0.01233,-12.20467 0.0093,-18.30669 -0.0062,-0.94851 1.410919,-1.43686 2.590214,-1.32215 1.574057,0.0531 3.214284,-0.15756 4.722018,0.24395 1.610256,0.59551 2.104303,1.92532 2.986485,2.96321 2.910449,3.9059 5.961777,7.78276 8.554609,11.78637 -0.232486,-4.15622 -0.10021,-8.31683 -0.13536,-12.47526 0.02158,-0.68152 -0.04378,-1.36789 0.03422,-2.04627 0.743985,-0.74197 2.30167,-0.4747 3.423891,-0.52409 1.001939,-0.0864 2.166742,0.29896 1.889702,1.1075 0,6.0595 0,12.11908 0,18.17856 z"
       id="text7879-1-5-5-8-8-8-7-6-4-2-4-84-3" />
  </g>
</svg>
