<?xml version="1.0" encoding="UTF-8" standalone="no"?>
<!-- Created with Inkscape (http://www.inkscape.org/) -->

<svg
   xmlns:dc="http://purl.org/dc/elements/1.1/"
   xmlns:cc="http://creativecommons.org/ns#"
   xmlns:rdf="http://www.w3.org/1999/02/22-rdf-syntax-ns#"
   xmlns:svg="http://www.w3.org/2000/svg"
   xmlns="http://www.w3.org/2000/svg"
   xmlns:sodipodi="http://sodipodi.sourceforge.net/DTD/sodipodi-0.dtd"
   xmlns:inkscape="http://www.inkscape.org/namespaces/inkscape"
   width="400mm"
   height="170mm"
   viewBox="0 0 400 170"
   version="1.1"
   id="svg8"
   inkscape:version="0.92.4 (5da689c313, 2019-01-14)"
   sodipodi:docname="anaylstaLogo3.svg"
   inkscape:export-filename="D:\Workspace\geoconomics\geoconomics.website\anaylstaLogo3.png"
   inkscape:export-xdpi="96"
   inkscape:export-ydpi="96">
  <defs
     id="defs2" />
  <sodipodi:namedview
     id="base"
     pagecolor="#ffffff"
     bordercolor="#666666"
     borderopacity="1.0"
     inkscape:pageopacity="0.0"
     inkscape:pageshadow="2"
     inkscape:zoom="0.49497475"
     inkscape:cx="490.44161"
     inkscape:cy="109.33928"
     inkscape:document-units="mm"
     inkscape:current-layer="layer1"
     showgrid="false"
     inkscape:window-width="1920"
     inkscape:window-height="1017"
     inkscape:window-x="-8"
     inkscape:window-y="-8"
     inkscape:window-maximized="1" />
  <metadata
     id="metadata5">
    <rdf:RDF>
      <cc:Work
         rdf:about="">
        <dc:format>image/svg+xml</dc:format>
        <dc:type
           rdf:resource="http://purl.org/dc/dcmitype/StillImage" />
        <dc:title></dc:title>
      </cc:Work>
    </rdf:RDF>
  </metadata>
  <g
     inkscape:label="Layer 1"
     inkscape:groupmode="layer"
     id="layer1"
     transform="translate(0,-127)">
    <path
       style="fill:#ff0000;stroke-width:0.04274308"
       d="m 243.1181,219.97546 c 0.87061,-0.17558 1.73659,-0.58688 2.34549,-1.11343 0.29249,-0.25287 0.84592,-0.90923 1.0542,-1.25025 0.98274,-1.60951 0.911,-3.64927 -0.18451,-5.24846 -0.43072,-0.62857 -1.20515,-1.28311 -1.94366,-1.6428 -1.16825,-0.56874 -2.61356,-0.66515 -3.86923,-0.25721 -1.57845,0.51257 -2.85624,1.82928 -3.28542,3.38587 -0.62227,2.25789 0.45772,4.61587 2.60349,5.68437 0.53163,0.26472 1.09334,0.42267 1.86206,0.52444 0.24172,0.0313 1.09857,-0.0181 1.41781,-0.0824 z"
       id="path13110-29-3"
       inkscape:connector-curvature="0" />
    <path
       inkscape:connector-curvature="0"
       style="font-style:normal;font-variant:normal;font-weight:bold;font-stretch:normal;font-size:14.15005779px;line-height:1.25;font-family:Calibri;-inkscape-font-specification:'Calibri, Bold';font-variant-ligatures:normal;font-variant-caps:normal;font-variant-numeric:normal;font-feature-settings:normal;text-align:start;letter-spacing:0px;word-spacing:0px;writing-mode:lr-tb;text-anchor:start;fill:#000000;fill-opacity:1;stroke:none;stroke-width:0.50692064"
       d="m 225.12515,266.52237 c -2.00781,2.45108 -11.62803,3.30941 -11.19276,-1.52994 0,-18.39813 0,-36.79639 0,-55.19453 1.88033,-2.58407 11.30879,-3.44413 11.19276,1.22381 0,18.50021 0,37.00045 0,55.50066 z"
       id="path13051-3-46-9" />
    <path
       inkscape:connector-curvature="0"
       style="font-style:normal;font-variant:normal;font-weight:bold;font-stretch:normal;font-size:14.15005779px;line-height:1.25;font-family:Calibri;-inkscape-font-specification:'Calibri, Bold';font-variant-ligatures:normal;font-variant-caps:normal;font-variant-numeric:normal;font-feature-settings:normal;text-align:start;letter-spacing:0px;word-spacing:0px;writing-mode:lr-tb;text-anchor:start;fill:#000000;fill-opacity:1;stroke:none;stroke-width:0.50692064"
       d="m 247.51062,266.52237 c -2.00769,2.45108 -11.62797,3.30941 -11.19271,-1.52994 0,-12.28714 0,-24.57439 0,-36.8615 1.94738,-2.50528 11.24979,-3.39881 11.19271,1.22381 0,12.3892 0,24.77839 0,37.16763 z"
       id="path13049-6-7-0" />
    <path
       inkscape:connector-curvature="0"
       style="font-style:normal;font-variant:normal;font-weight:bold;font-stretch:normal;font-size:14.15005779px;line-height:1.25;font-family:Calibri;-inkscape-font-specification:'Calibri, Bold';font-variant-ligatures:normal;font-variant-caps:normal;font-variant-numeric:normal;font-feature-settings:normal;text-align:start;letter-spacing:0px;word-spacing:0px;writing-mode:lr-tb;text-anchor:start;fill:#000000;fill-opacity:1;stroke:none;stroke-width:0.50692064"
       d="m 286.59656,255.65193 c 0.41657,6.62668 -5.42184,12.03302 -11.91455,12.8439 -5.79277,0.98595 -12.29145,0.58811 -17.31099,-2.62051 -2.49646,-3.45126 -1.05448,-11.56745 4.26387,-6.55674 4.35589,2.54091 14.95156,3.31377 13.86875,-4.00092 -3.24067,-4.74436 -10.28584,-4.3241 -14.50164,-8.01269 -7.11388,-4.97796 -5.34156,-17.05238 2.83427,-20.03071 6.1167,-2.48109 13.63338,-2.36121 19.42905,0.85667 2.43061,2.83191 1.41106,11.06073 -3.59763,6.55672 -4.02159,-2.12229 -13.56345,-2.69517 -12.3587,3.90384 3.34698,4.71347 10.42688,4.29608 14.74605,7.93709 2.95755,2.08349 4.65955,5.58751 4.54152,9.12335 z"
       id="path13045-8-2-6" />
    <path
       inkscape:connector-curvature="0"
       style="font-style:normal;font-variant:normal;font-weight:bold;font-stretch:normal;font-size:14.15005779px;line-height:1.25;font-family:Calibri;-inkscape-font-specification:'Calibri, Bold';font-variant-ligatures:normal;font-variant-caps:normal;font-variant-numeric:normal;font-feature-settings:normal;text-align:start;letter-spacing:0px;word-spacing:0px;writing-mode:lr-tb;text-anchor:start;fill:#000000;fill-opacity:1;stroke:none;stroke-width:0.50692064"
       d="m 317.33218,262.72631 c 1.13508,6.77407 -7.75732,6.54362 -12.43365,5.80522 -5.87294,-0.63713 -9.17345,-6.4095 -9.06082,-11.73106 -0.10487,-7.13943 -0.0188,-14.28199 -0.045,-21.42268 -2.1081,-0.37086 -5.45464,1.08871 -6.23481,-1.59336 -1.25052,-3.73955 0.0125,-8.46545 4.67719,-7.2064 2.69187,0.68219 1.16103,-2.73671 1.55762,-4.28363 0.15241,-2.33812 -1.00291,-6.22347 2.84261,-5.98291 3.62579,-0.56627 9.63051,-0.4645 8.30567,4.43602 0,1.94349 0,3.88701 0,5.83052 3.11466,0.1348 6.31007,-0.27533 9.37182,0.21546 2.00313,2.89108 1.80692,9.87937 -3.23102,8.58414 -2.04688,0 -4.09373,0 -6.1408,0 0.1376,6.9415 -0.29508,13.91872 0.25521,20.83491 0.92069,8.23757 11.65799,-1.98921 10.1379,6.51361 z"
       id="path13043-7-1-4" />
    <path
       id="text8330-78-5-2-8"
       style="font-style:normal;font-variant:normal;font-weight:bold;font-stretch:normal;font-size:14.15005779px;line-height:1.25;font-family:Calibri;-inkscape-font-specification:'Calibri, Bold';font-variant-ligatures:normal;font-variant-caps:normal;font-variant-numeric:normal;font-feature-settings:normal;text-align:start;letter-spacing:0px;word-spacing:0px;writing-mode:lr-tb;text-anchor:start;fill:#000000;fill-opacity:1;stroke:none;stroke-width:0.50692064"
       d="m 347.40167,250.17367 c -4.7011,0.18362 -10.82338,-0.9624 -13.76892,3.45086 -3.31805,6.75435 7.01921,10.31974 11.2323,5.48845 2.88363,-1.3252 2.67354,-4.06703 2.53662,-6.66613 0,-0.75779 0,-1.51555 0,-2.27318 z m 10.97067,16.47808 c -1.45369,2.42614 -10.24875,2.99946 -9.23852,-1.52982 0.38444,-3.74574 -4.08972,3.28456 -6.38477,2.76922 -7.08587,2.65042 -17.53105,0.69533 -19.97592,-7.19761 -2.01726,-5.87839 0.61842,-13.19876 6.98781,-15.25143 5.58205,-2.22551 11.71122,-2.09597 17.64073,-2.0841 0.21856,-3.59448 -0.0771,-8.67735 -4.7081,-9.29051 -5.78793,-1.22068 -11.20651,1.58538 -16.345,3.63962 -5.37606,-3.81605 0.24237,-11.00186 5.95168,-10.96199 7.18713,-1.70015 15.83531,-2.1527 21.98589,2.46414 5.49415,5.04116 3.79054,12.91338 4.0862,19.51577 0,5.97552 0,11.95115 0,17.92671 z"
       inkscape:connector-curvature="0" />
    <path
       style="fill:#ff0000;stroke-width:0.04579466"
       d="m 356.75903,240.45361 c 0.17304,0.36962 0.12801,0.82025 -0.13052,1.30429 -0.0663,0.12918 -0.40434,0.6527 -0.74762,1.16832 -0.78202,1.17469 -1.10474,1.72136 -1.53281,2.59799 -0.88496,1.811 -1.69648,4.46164 -2.69637,8.80732 -0.87929,3.82154 -1.36413,5.40664 -2.19358,7.17109 -0.82954,1.76461 -1.87603,3.22356 -3.26311,4.54931 -2.0762,1.98471 -4.07772,3.14278 -6.6482,3.84434 -1.05133,0.2872 -2.5993,0.48949 -3.7815,0.49447 -0.67821,0.002 -2.03694,-0.12476 -2.73417,-0.25659 -2.73827,-0.51759 -5.19317,-1.76175 -7.25776,-3.67858 -0.60426,-0.56064 -1.72231,-1.9072 -2.15886,-2.59941 -0.89934,-1.4261 -1.45065,-2.76086 -1.82262,-4.41258 -0.33942,-1.50754 -0.4127,-2.86657 -0.24043,-4.43964 0.41465,-3.77234 2.2388,-7.02624 5.27278,-9.40383 2.36241,-1.85137 4.91176,-2.9507 7.90794,-3.40985 1.58462,-0.24285 3.15594,-0.32777 6.51397,-0.3515 3.38255,-0.0251 4.62498,-0.0687 6.49234,-0.2335 2.33366,-0.20608 3.44785,-0.45762 5.84881,-1.31883 0.74938,-0.2691 1.43799,-0.50448 1.53006,-0.52318 0.5972,-0.12235 1.03795,-0.0141 1.3787,0.34649 0.10988,0.11471 0.22759,0.2697 0.2623,0.34339 z"
       id="path13125-8-7-3"
       inkscape:connector-curvature="0" />
    <path
       style="fill:#ffffff;stroke-width:0.04579466"
       d="m 339.26359,252.42762 c -0.73639,-0.58688 -1.67198,-1.0118 -2.53365,-1.1507 -0.414,-0.0667 -1.34974,-0.0737 -1.78269,-0.0141 -2.04309,0.28656 -3.74619,1.71673 -4.38255,3.6797 -0.25008,0.77161 -0.29121,1.83916 -0.10341,2.6792 0.297,1.32889 1.18689,2.56411 2.38156,3.30697 1.50162,0.93374 3.49188,1.08288 5.1172,0.38332 2.35732,-1.01474 3.65555,-3.47545 3.12978,-5.93209 -0.13052,-0.60872 -0.37222,-1.16995 -0.80223,-1.86076 -0.1351,-0.21725 -0.75392,-0.87806 -1.02431,-1.09308 z"
       id="path13110-29-6-1"
       inkscape:connector-curvature="0" />
    <path
       style="font-style:normal;font-variant:normal;font-weight:bold;font-stretch:normal;font-size:473.13607788px;line-height:1.25;font-family:Calibri;-inkscape-font-specification:'Calibri, Bold';font-variant-ligatures:normal;font-variant-caps:normal;font-variant-numeric:normal;font-feature-settings:normal;text-align:start;letter-spacing:0px;word-spacing:0px;writing-mode:lr-tb;text-anchor:start;fill:#000000;fill-opacity:1;stroke:none;stroke-width:0.73231411"
       d="m 175.77914,156.7498 c -2.68151,0.6586 -6.70716,-1.65904 -8.19265,3.73376 -6.31428,32.64209 -12.57015,65.32304 -18.86203,97.98004 -1.55184,4.45121 -0.71447,10.53538 2.72085,9.23003 2.70729,-0.54817 6.59074,1.79677 8.38519,-2.91133 1.17699,-6.29019 2.28661,-12.62213 3.41951,-18.9397 l -0.0913,-0.0251 3.48034,-20.82437 c 0.54192,-2.9416 1.08346,-5.88359 1.62518,-8.82544 2.35424,-12.61433 4.62273,-25.44378 7.03058,-37.92377 2.2733,12.34513 4.54667,24.69006 6.81985,37.03522 2.28494,12.06912 4.20931,23.37026 6.186,34.74467 h -0.0579 c 0.98426,5.38169 1.88515,10.82956 3.09396,16.03337 2.72041,2.83347 6.22464,1.29411 9.26943,1.60039 3.30642,1.26192 4.07231,-4.45926 2.63214,-8.74027 -4.73895,-24.55263 -9.47764,-49.10537 -14.21653,-73.65801 -1.72528,-8.6061 -3.22241,-17.38997 -5.10293,-25.87501 -2.02472,-3.87319 -5.49828,-2.02782 -8.13981,-2.63431 z"
       id="path8055-6-5-6-3-7-9-3-8-2"
       inkscape:connector-curvature="0"
       sodipodi:nodetypes="ccccccccccccccccccc" />
    <path
       style="font-style:normal;font-variant:normal;font-weight:bold;font-stretch:normal;font-size:473.13607788px;line-height:1.25;font-family:Calibri;-inkscape-font-specification:'Calibri, Bold';font-variant-ligatures:normal;font-variant-caps:normal;font-variant-numeric:normal;font-feature-settings:normal;text-align:start;letter-spacing:0px;word-spacing:0px;writing-mode:lr-tb;text-anchor:start;fill:#ff0000;fill-opacity:1;stroke:none;stroke-width:0.53689253"
       d="m 54.97891,208.20102 c -2.681512,0.35401 -6.707155,-0.89154 -8.192647,2.00693 -6.314252,17.54531 -12.570131,35.11129 -18.86201,52.66439 -1.551836,2.39269 -0.714461,5.66283 2.720856,4.96113 2.707292,-0.29468 6.590739,0.96584 8.385186,-1.56475 1.176991,-3.38085 2.286612,-6.78444 3.419504,-10.18005 l -0.09128,-0.0141 3.480255,-11.19304 c 0.54192,-1.58132 1.08352,-3.16243 1.625249,-4.74368 2.354238,-6.78038 4.622653,-13.67613 7.030505,-20.38409 2.273369,6.63547 4.546671,13.27095 6.819912,19.90654 2.28494,6.48701 4.209305,12.56137 6.186,18.67528 h -0.05786 c 0.984263,2.89272 1.885152,5.82109 3.093964,8.61797 2.720404,1.52307 6.224634,0.69557 9.269353,0.86014 3.30649,0.67841 4.072509,-2.39681 2.632207,-4.69785 -4.738883,-13.19708 -9.477638,-26.39415 -14.216458,-39.59149 -1.725338,-4.62559 -3.222339,-9.34705 -5.10299,-13.90789 -2.024715,-2.08168 -5.49828,-1.08977 -8.139808,-1.41591 z"
       id="path8055-6-5-6-4-5-9-11-6"
       inkscape:connector-curvature="0"
       sodipodi:nodetypes="ccccccccccccccccccc" />
    <path
       inkscape:connector-curvature="0"
       style="font-style:normal;font-variant:normal;font-weight:bold;font-stretch:normal;font-size:473.13607788px;line-height:1.25;font-family:Calibri;-inkscape-font-specification:'Calibri, Bold';font-variant-ligatures:normal;font-variant-caps:normal;font-variant-numeric:normal;font-feature-settings:normal;text-align:start;letter-spacing:0px;word-spacing:0px;writing-mode:lr-tb;text-anchor:start;fill:#000000;fill-opacity:1;stroke:none;stroke-width:0.45036229"
       d="m 94.882167,226.26147 c -2.212492,0.0625 -4.472683,1.02022 -4.461497,2.68749 -0.04499,12.2588 -0.0065,24.51781 -0.01939,36.77695 -0.549634,1.55117 1.498738,2.49829 3.664237,2.31971 2.434208,-0.0755 5.777151,0.47512 7.414683,-1.03882 0.16135,-2.25747 0.0257,-4.53097 0.0701,-6.79467 -0.0849,-8.20979 0.2462,-16.42707 -0.37864,-24.6298 0.84734,1.22332 1.64093,2.54983 2.49489,3.84902 v -12.99887 c -2.56586,-0.29341 -5.24815,-0.0563 -7.846606,-0.14184 -0.307282,-0.0313 -0.620992,-0.0376 -0.936824,-0.0313 z"
       id="text7879-1-5-5-8-8-8-7-6-4-2-4-84-1-8" />
    <path
       inkscape:connector-curvature="0"
       style="font-style:normal;font-variant:normal;font-weight:bold;font-stretch:normal;font-size:473.13607788px;line-height:1.25;font-family:Calibri;-inkscape-font-specification:'Calibri, Bold';font-variant-ligatures:normal;font-variant-caps:normal;font-variant-numeric:normal;font-feature-settings:normal;text-align:start;letter-spacing:0px;word-spacing:0px;writing-mode:lr-tb;text-anchor:start;fill:#000000;fill-opacity:1;stroke:none;stroke-width:0.45036229"
       d="m 140.59352,264.93206 c 0.20313,1.8875 -2.52575,3.27771 -5.13283,3.02185 -3.1234,-0.12556 -6.53539,0.41582 -9.3474,-0.76156 -3.06645,-1.67684 -4.26446,-4.36308 -6.21037,-6.61448 -4.98663,-6.46524 -10.13065,-12.87488 -15.00556,-19.37949 -1.37576,-1.81597 -2.48692,-3.82915 -3.72498,-5.61662 0.62484,8.20274 0.2912,16.41946 0.37606,24.62919 -0.045,2.26369 0.0913,4.53713 -0.0701,6.79454 -1.637525,1.51407 -4.977836,0.96365 -7.41204,1.03927 -2.165499,0.17859 -4.215743,-0.76844 -3.666299,-2.31959 0.01293,-12.25914 -0.02571,-24.51891 0.01939,-36.77773 -0.01293,-1.90554 2.941615,-2.88662 5.400318,-2.65617 3.281741,0.10667 6.701441,-0.31654 9.844901,0.49009 3.35721,1.19636 4.38725,3.86792 6.2265,5.95302 6.06798,7.84687 12.42967,15.63539 17.83545,23.67855 -0.48471,-8.34975 -0.20893,-16.70832 -0.28221,-25.06252 0.045,-1.36915 -0.0913,-2.74806 0.0713,-4.11091 1.55113,-1.4906 4.79874,-0.95366 7.13845,-1.05288 2.08893,-0.17358 4.51742,0.6006 3.93982,2.22494 0,12.1734 0,24.34696 0,36.52032 z"
       id="text7879-1-5-5-8-8-8-7-6-4-2-4-84-3" />
  </g>
</svg>
