<?xml version="1.0" encoding="UTF-8"?>
<svg id="Layer_2" data-name="Layer 2" xmlns="http://www.w3.org/2000/svg" viewBox="0 0 974.4083 183.2794">
  <defs>
    <style>
      .cls-1 {
        fill: #f0ad00;
      }

      .cls-1, .cls-2 {
        stroke-width: 0px;
      }

      .cls-2 {
        fill: #343942;
      }
    </style>
  </defs>
  <g id="Layer_1-2" data-name="Layer 1">
    <g>
      <path class="cls-2" d="m108.8076,134.5115c.6717-5.2328,1.5099-11.0717,2.5174-17.5126,1.0075-6.4423,2.1461-12.8833,3.4212-19.3256,1.2751-6.4423,2.5174-12.4464,3.7242-18.0164,1.2096-5.5672,2.2826-10.0969,3.2218-13.5891l10.4682-38.8518h52.7426v156.0633h-36.2348v-1.4735c0-7.7816.1311-93.9278.4014-102.2499.2676-8.3194.5706-16.3058.9065-23.9549.3331-7.6505.5024-14.2935.5024-19.929l10.6703,20.7345h-17.5153l11.2737-21.9426c-1.6109,6.5761-3.4212,14.0915-5.4334,22.5461-2.015,8.4546-4.1966,17.4826-6.5447,27.0757-2.3481,9.5959-4.9993,19.4949-7.9508,29.6914l-9.6628,34.2225h-32.4095l-9.2614-35.2286c-2.8177-10.8696-5.3324-20.8341-7.5468-29.8935-2.2143-9.0594-4.2976-17.6136-6.2416-25.6669-1.9468-8.0519-3.858-15.8334-5.7365-23.3515l10.8696,22.5474h-15.5003l9.2614-21.1372c.2676,6.0382.4341,12.8833.5024,20.5324.0655,7.6491.1311,15.6014.202,23.8553.0655,8.2526.101,16.2744.101,24.0559v44.2866h-34.2225V27.2161h57.974l11.2737,40.4628c.9365,3.2205,1.9795,7.4485,3.1208,12.6826,1.1386,5.2341,2.3454,11.0403,3.6232,17.413,1.2751,6.3754,2.4464,12.7508,3.5222,19.1235,1.073,6.3754,2.015,12.314,2.8205,17.8157l-13.488-28.7863h16.1037l-11.4758,28.5843Z"/>
      <path class="cls-2" d="m221.1352,150.0132c-5.1031,0-9.7993-1.0416-14.0915-3.1208-4.2976-2.0792-7.7515-5.2655-10.3672-9.5618-2.6184-4.2935-3.9263-9.6628-3.9263-16.1051,0-8.7222,2.8177-15.6669,8.4532-20.8341,5.6382-5.1659,15.099-7.7502,28.385-7.7502h24.1556l.202,14.8955h-18.5201c-2.8177,0-5.0676.7399-6.744,2.2143-1.6792,1.4785-2.5147,3.2218-2.5147,5.2341,0,1.4785.3331,2.8191,1.0048,4.0259.6717,1.2082,1.843,2.1488,3.5249,2.8191,1.6764.673,3.8553,1.0061,6.542,1.0061,2.6812,0,5.0321-.5352,7.0444-1.6109,2.015-1.0717,3.5904-2.5816,4.7317-4.5283,1.1386-1.944,1.7119-4.127,1.7119-6.5433v-21.7406c0-3.6232-.9065-6.3413-2.7195-8.1529-1.8102-1.8116-4.5979-2.7181-8.3522-2.7181-2.9543,0-5.5372.7044-7.7515,2.1147-2.2143,1.4089-3.6587,4.1952-4.3276,8.3536l-32.0082-4.4287c.6689-6.1706,2.5174-11.8416,5.5372-17.0102,3.0198-5.1645,7.7488-9.3256,14.1897-12.4805,6.4437-3.1522,15.099-4.7304,25.9686-4.7304,10.3345,0,18.7222,1.544,25.1631,4.6293,6.4437,3.0894,11.1399,7.5181,14.0915,13.286,2.9515,5.772,4.4287,12.7522,4.4287,20.9365v59.787h-34.2198v-31.8061l5.2314,8.8573h-7.8498l4.4287-16.9092c-.4014,8.5898-1.7447,16.0027-4.0246,22.2443-2.2853,6.2403-5.6382,11.0717-10.0669,14.4928-4.4287,3.4225-10.2007,5.1345-17.3106,5.1345Z"/>
      <path class="cls-2" d="m325.4081,89.0167h5.4334l-2.4136,8.2539c1.3379-10.4682,2.8177-18.7522,4.4287-24.8614,1.6082-6.1051,3.4212-10.6348,5.4334-13.5877,2.015-2.9502,4.2949-4.8628,6.845-5.7379,2.5474-.871,5.4362-1.3078,8.6553-1.3078h3.8253v39.4553h-11.8771c-4.5625,0-8.0874.3713-10.5665,1.1072-2.4874.7399-4.1638,2.1147-5.0348,4.127-.8737,2.0136-1.3078,4.9665-1.3078,8.8573v42.6771h-34.2225V51.7758h34.2225v45.2942l-3.4212-8.0532Z"/>
      <path class="cls-2" d="m398.6804,0v147.9996h-34.2225V0h34.2225Zm-6.643,98.4788l30.5966-46.703h38.8532v.4027l-44.0873,59.1836h-38.6484v-24.3577h39.858l43.8826,60.5924v.4027h-39.858l-32.8109-49.9235,2.2143.4027Z"/>
      <path class="cls-2" d="m503.3602,151.0194c-9.5317,0-18.0505-1.7802-25.5672-5.3351-7.5167-3.5536-13.4198-8.9229-17.7147-16.1037-4.2949-7.1782-6.4409-16.1365-6.4409-26.8751,0-11.4048,1.914-21.1017,5.7365-29.088,3.8253-7.9836,9.4935-14.1229,17.0102-18.4191,7.5167-4.2935,16.7099-6.4423,27.5795-6.4423,10.1979,0,18.5201,1.9823,24.9611,5.9386,6.4437,3.9604,11.2382,9.3297,14.3945,16.1051,3.1509,6.7782,4.7317,14.5283,4.7317,23.2505,0,2.415.03,4.4983.0983,6.2403.0683,1.7461-.0328,3.9604-.3003,6.643h-69.6518v-14.6949h46.0996l-7.6505,4.6293c.6689-6.9761-.1693-12.0437-2.5174-15.1986-2.3481-3.1509-6.0723-4.7304-11.1727-4.7304-5.6355,0-9.6956,1.645-12.1775,4.9324-2.4846,3.2901-3.7242,9.159-3.7242,17.6136,0,8.187,1.3078,13.9249,3.9263,17.2123,2.6157,3.2901,6.8751,4.9311,12.7809,4.9311,3.2218,0,5.7392-.4341,7.5495-1.3078,1.813-.871,3.2218-2.045,4.2266-3.5235,1.0075-1.4744,1.7775-3.0853,2.3154-4.8314l29.1904,8.2539c-1.4799,5.5044-3.8935,10.6034-7.2464,15.2996-3.3556,4.699-7.9863,8.4546-13.8921,11.2723-5.9058,2.8191-13.4198,4.228-22.5447,4.228Z"/>
      <path class="cls-2" d="m0,0h56.3115c17.2968,0,32.4753,11.5227,37.1246,28.1829h0s-90.3091,0-90.3091,0L0,0Z"/>
      <path class="cls-2" d="m620.4228,52.5805v-28.0874c-8.2892.2083-9.1112.3359-14.6545,3.7535-6.2838,3.8737-9.6441,21.3606-9.6441,21.3606h-.752v-25.2097h-.0178V1.8516h-34.2225v22.546h-12.962l4.1047,28.1829h8.8573v64.2163c0,6.1747,1.1388,11.8457,3.4215,17.0102,2.2827,5.1686,5.9054,9.3297,10.8721,12.482,4.9641,3.1508,11.405,4.7303,19.3256,4.7303,3.8907,0,7.1457-.1707,9.7613-.5038,2.6181-.3358,5.0346-.7741,7.2489-1.3078,2.2143-.5379,4.5951-1.2082,7.1453-2.0137l-3.6228-31.8061c-1.2097.2703-2.9188.7044-5.1335,1.3092-2.2139.6035-4.2618.9052-6.1407.9052-3.3552,0-5.6354-.6703-6.8447-2.0123-1.2067-1.3406-1.8105-3.4225-1.8105-6.2416v-56.7679h25.0684Z"/>
      <g>
        <path class="cls-1" d="m749.7518,111.465c-.4089-2.1421-1.0212-4.1327-1.836-5.9676-.8178-1.837-1.9657-3.3149-3.4436-4.4399-1.48-1.1209-3.3927-1.6834-5.7393-1.6834-3.2661,0-5.9946,1.1479-8.1876,3.4436-2.195,2.2957-3.29,6.1482-3.29,11.5554,0,3.5723.4826,6.5031,1.454,8.7989.9683,2.2957,2.3455,3.9791,4.1317,5.0502,1.7841,1.0711,3.7996,1.6066,6.0455,1.6066,2.2428,0,4.0787-.5584,5.5089-1.6834,1.4281-1.1209,2.5759-2.6776,3.4436-4.6662.8656-1.9906,1.5038-4.3091,1.9128-6.964l24.9447,4.5914c-.9175,9.7931-4.1846,17.6517-9.7942,23.5674-5.6116,5.9178-14.1313,8.8757-25.557,8.8757-7.7548,0-14.5382-1.3762-20.3543-4.1306-5.8151-2.7565-10.3297-6.964-13.5429-12.6264-3.2142-5.6625-4.8208-12.8299-4.8208-21.5021,0-8.365,1.5298-15.4805,4.5904-21.3485,3.0616-5.8659,7.4725-10.3536,13.2377-13.4671,5.7632-3.1115,12.5735-4.6682,20.4311-4.6682,8.1606,0,14.7156,1.2516,19.6651,3.7508,4.9474,2.5012,8.6961,6.1461,11.2482,10.941,2.549,4.7969,4.2323,10.613,5.0502,17.4462l-25.0983,3.5204Z"/>
        <path class="cls-1" d="m817.0883,153.5497c-7.9582,0-14.8215-1.5568-20.5836-4.6682-5.7652-3.1094-10.2031-7.5742-13.3145-13.3903-3.1135-5.814-4.6672-12.751-4.6672-20.813,0-8.1616,1.5537-15.1505,4.6672-20.9645,3.1115-5.8161,7.5493-10.2539,13.3145-13.3156,5.7621-3.0596,12.6254-4.5914,20.5836-4.5914,7.8544,0,14.6388,1.5319,20.3532,4.5914,5.7133,3.0616,10.1242,7.4995,13.2377,13.3156,3.1115,5.814,4.6682,12.8029,4.6682,20.9645,0,12.1428-3.4197,21.6557-10.2539,28.5429-6.8363,6.8851-16.1717,10.3287-28.0053,10.3287Zm-.1536-54.1756c-4.0819,0-7.1684,1.4052-9.2586,4.2095-2.0923,2.8063-3.1374,6.5031-3.1374,11.0946,0,3.0616.4598,5.7165,1.3772,7.9582.9185,2.2459,2.3196,4.0061,4.2085,5.2806,1.8868,1.2766,4.1566,1.9117,6.8104,1.9117,4.0798,0,7.1663-1.3762,9.2586-4.1306,2.0902-2.7544,3.1374-6.4284,3.1374-11.0199,0-3.0596-.4587-5.7393-1.3772-8.0329-.9185-2.2957-2.2957-4.0808-4.1317-5.3574-1.837-1.2745-4.1327-1.9138-6.8872-1.9138Z"/>
        <path class="cls-1" d="m883.8105,98.9154h6.2738l-3.8255,4.2863c1.1209-7.2442,2.8043-12.8548,5.0502-16.8339,2.2428-3.9791,4.9474-6.7336,8.1108-8.2654,3.1613-1.5298,6.6806-2.2957,10.5601-2.2957,4.5904,0,8.4169.9963,11.4775,2.9848,3.0606,1.9906,5.3563,4.8467,6.8861,8.5705,1.5308,3.7259,2.2957,8.2405,2.2957,13.5439v50.348h-26.0157v-42.5434c0-2.0404-.3331-3.7487-.9953-5.127-.6642-1.3783-1.6325-2.4493-2.908-3.2132-1.2766-.7659-2.8831-1.1479-4.8198-1.1479-1.9397,0-3.5733.3819-4.8976,1.1479-1.3274.7639-2.3476,1.8349-3.0606,3.2132-.7151,1.3783-1.0711,3.0866-1.0711,5.127v42.5434h-26.0167v-73.1516h26.0167v25.0993l-3.0606-4.2863Zm43.7681,0h6.2748l-3.8265,4.2863c1.1219-7.2442,2.8053-12.8548,5.0502-16.8339,2.2438-3.9791,4.9474-6.7336,8.1118-8.2654,3.1602-1.5298,6.6806-2.2957,10.5591-2.2957,4.5914,0,8.4169.9963,11.4775,2.9848,3.0606,1.9906,5.3563,4.8467,6.8872,8.5705,1.5298,3.7259,2.2957,8.2405,2.2957,13.5439v50.348h-26.0167v-42.5434c0-2.0404-.3321-3.7487-.9943-5.127-.6653-1.3783-1.6336-2.4493-2.908-3.2132-1.2766-.7659-2.8842-1.1479-4.8208-1.1479-1.9387,0-3.5723.3819-4.8976,1.1479-1.3264.7639-2.3476,1.8349-3.0606,3.2132-.7151,1.3783-1.0711,3.0866-1.0711,5.127h-3.0606v-9.7952Z"/>
      </g>
      <circle class="cls-1" cx="659.7746" cy="123.1285" r="27.8908"/>
    </g>
  </g>
</svg>